
        <svg xmlns="http://www.w3.org/2000/svg" xmlns:xlink="http://www.w3.org/1999/xlink" version="1.1" width="3192" 
        height="3192" viewBox="0 0 3192 3192">
			<rect fill="#c7f3ff" width="3192" height="3192"/>
			<g transform="scale(9.6) translate(10, 10)">
				<defs id="SvgjsDefs1325"></defs><g id="SvgjsG1326" featureKey="rootContainer" transform="matrix(6.250000476837195,0,0,6.250000476837195,0,0)" fill="#111111"><circle cx="25" cy="25" r="25"></circle></g><g id="SvgjsG1327" featureKey="symbolFeature-0" transform="matrix(0.8103131939132047,0,0,0.8103131939132047,104.1395800209626,57.8847130847603)" fill="#c7f3ff"><g xmlns="http://www.w3.org/2000/svg"><path fill="#c7f3ff" d="M15.962,60.709c-1.92-1.033-4.515-0.305-5.588,1.581c-0.546,0.97-0.676,2.097-0.368,3.176   c0.31,1.084,1.023,1.977,2.007,2.515c0.599,0.329,1.28,0.504,1.967,0.504c1.49,0,2.885-0.805,3.649-2.113   c0.547-0.97,0.677-2.091,0.369-3.157C17.685,62.139,16.963,61.249,15.962,60.709z"></path><path fill="#c7f3ff" d="M20.997,42.326c-1.372-1.695-4.046-2.026-5.765-0.701c-0.878,0.683-1.434,1.673-1.567,2.787   c-0.133,1.119,0.179,2.219,0.879,3.095c0.426,0.535,0.985,0.96,1.619,1.225c1.374,0.576,2.972,0.372,4.182-0.539   c0.88-0.684,1.433-1.667,1.561-2.769C22.033,44.311,21.711,43.212,20.997,42.326z"></path><path fill="#c7f3ff" d="M32.745,27.318c-0.61-2.093-2.948-3.433-5.046-2.875c-1.074,0.291-1.969,0.988-2.522,1.965   c-0.555,0.981-0.692,2.116-0.385,3.194c0.186,0.658,0.538,1.266,1.02,1.756c1.045,1.062,2.597,1.492,4.065,1.119   c1.076-0.291,1.966-0.984,2.509-1.951C32.934,29.549,33.062,28.411,32.745,27.318z"></path><path fill="#c7f3ff" d="M99.879,31.412c2.072-0.678,3.335-3.058,2.709-5.137c-0.325-1.064-1.052-1.936-2.046-2.457   c-0.999-0.523-2.137-0.623-3.205-0.281c-0.652,0.207-1.248,0.579-1.722,1.076c-1.028,1.079-1.407,2.644-0.987,4.1   c0.325,1.066,1.047,1.933,2.031,2.445C97.655,31.673,98.797,31.764,99.879,31.412z"></path><path fill="#c7f3ff" d="M109.716,47.737c2.173,0.176,4.258-1.532,4.484-3.691c0.111-1.107-0.222-2.192-0.937-3.057   c-0.719-0.868-1.73-1.401-2.847-1.498c-0.681-0.061-1.375,0.052-2.004,0.327c-1.365,0.598-2.319,1.895-2.494,3.4   c-0.112,1.108,0.219,2.187,0.929,3.04C107.564,47.118,108.582,47.643,109.716,47.737z"></path><path fill="#c7f3ff" d="M112.48,66.595c1.936,1.002,4.519,0.233,5.562-1.671c0.53-0.978,0.643-2.108,0.317-3.182   c-0.328-1.079-1.055-1.96-2.047-2.482c-0.605-0.32-1.288-0.484-1.975-0.473c-1.49,0.024-2.872,0.851-3.614,2.172   c-0.531,0.979-0.644,2.102-0.318,3.163C110.734,65.193,111.471,66.071,112.48,66.595z"></path><path fill="#c7f3ff" d="M73.535,111.481c-0.498,2.123,0.88,4.439,2.981,4.984c1.078,0.275,2.201,0.107,3.162-0.471   c0.966-0.582,1.643-1.502,1.906-2.592c0.162-0.664,0.154-1.367-0.025-2.03c-0.388-1.439-1.528-2.576-2.99-2.973   c-1.079-0.276-2.196-0.11-3.144,0.465C74.467,109.445,73.796,110.374,73.535,111.481z"></path><path fill="#c7f3ff" d="M54.476,111.404c-1.28,1.765-0.904,4.434,0.824,5.749c0.888,0.67,1.988,0.95,3.099,0.788   c1.115-0.163,2.096-0.751,2.759-1.654c0.406-0.55,0.67-1.201,0.762-1.882c0.198-1.477-0.414-2.966-1.609-3.898   c-0.889-0.671-1.983-0.95-3.08-0.786C56.122,109.886,55.144,110.483,54.476,111.404z"></path><path fill="#c7f3ff" d="M36.927,103.966c-1.863,1.134-2.547,3.74-1.462,5.62c0.56,0.962,1.467,1.644,2.554,1.924   c1.092,0.281,2.223,0.118,3.184-0.459c0.587-0.351,1.082-0.849,1.43-1.442c0.754-1.285,0.765-2.896,0.023-4.217   c-0.561-0.963-1.461-1.642-2.537-1.915C39.032,103.203,37.899,103.376,36.927,103.966z"></path><path fill="#c7f3ff" d="M83.116,10.015H45.118c-2.572,0-3.644,1.072-3.644,3.605v26.793c0,2.533,1.033,3.585,3.527,3.585h15.316   v1.949c0,1.033-1.169,1.754-2.007,2.163c-0.468,0.214-0.974,0.409-1.461,0.507c-0.059,0-0.117,0.039-0.156,0.039   c-0.039,0.02-0.059,0.039-0.078,0.039c-0.175,0.117-0.312,0.312-0.312,0.565v0.039c0,0.234,0.136,0.448,0.312,0.565   c0.058,0.02,0.117,0.039,0.175,0.059h14.42c0.058-0.02,0.117-0.039,0.175-0.059c0.195-0.117,0.331-0.331,0.331-0.565V49.26   c0-0.253-0.136-0.448-0.331-0.565c-0.019,0-0.058-0.02-0.078-0.039c-0.039,0-0.097-0.039-0.136-0.039   c-0.507-0.098-0.994-0.292-1.461-0.507c-0.857-0.409-2.007-1.13-2.007-2.163v-1.949h15.413c2.358,0,3.41-1.111,3.41-3.488V13.386   C86.526,11.145,85.396,10.015,83.116,10.015z M81.966,36.224c-11.945-0.02-23.89-0.02-35.815-0.02   c-1.228,0-1.267-0.039-1.267-1.247V15.413c0-1.383,0-1.403,1.5-1.403H81.81c1.267,0,1.325,0.039,1.325,1.208   c0,6.625-0.02,13.231,0.02,19.817C83.155,35.912,82.921,36.224,81.966,36.224z"></path><g><g><path fill="#c7f3ff" d="M120.04,95.014c0-0.471-0.383-0.856-0.854-0.856h-5.889c-0.104-2.648-0.504-5.077-1.219-7.408l3.434-1.31     c0.265-0.1,0.458-0.315,0.529-0.587c0.075-0.263,0.012-0.561-0.163-0.776c-0.162-0.198-0.4-0.317-0.619-0.319     c-0.149-0.032-0.308-0.027-0.46,0.016c-0.081,0.025-0.166,0.056-0.266,0.101c-0.678,0.308-1.398,0.572-2.136,0.843l-0.629,0.231     c-0.075,0.027-0.152,0.052-0.231,0.075c-0.077-0.22-0.16-0.444-0.265-0.661l-0.38-0.785c-0.454-1.07-0.976-2.139-1.591-3.258     l-0.223-0.467c-0.035-0.072-0.072-0.139-0.11-0.195c-0.16-0.249-0.416-0.39-0.704-0.39c-0.416,0-0.788,0.306-0.854,0.676     c-0.064,0.16-0.046,0.48,0.084,0.697c0.941,1.586,1.694,3.174,2.3,4.851c-1.956,0.47-3.809,0.716-5.65,0.75v-7.018     c0-0.483-0.393-0.876-0.877-0.876c-0.512,0-0.912,0.384-0.912,0.876v7.018c-1.842-0.035-3.695-0.28-5.65-0.75     c0.604-1.675,1.357-3.264,2.3-4.85c0.129-0.217,0.158-0.478,0.085-0.694c-0.071-0.382-0.447-0.681-0.856-0.681     c-0.288,0-0.544,0.142-0.701,0.386c-0.042,0.062-0.079,0.13-0.111,0.199l-0.228,0.474c-0.619,1.122-1.139,2.19-1.59,3.258     l-0.377,0.779c-0.1,0.207-0.181,0.418-0.266,0.658c-0.08-0.022-0.158-0.046-0.233-0.074l-0.684-0.253     c-0.691-0.253-1.406-0.515-2.08-0.822c-0.097-0.043-0.185-0.075-0.265-0.1c-0.149-0.043-0.357-0.043-0.424-0.02     c-0.253,0.007-0.49,0.123-0.649,0.318c-0.181,0.22-0.244,0.51-0.172,0.779c0.075,0.276,0.269,0.49,0.53,0.59l3.436,1.31     c-0.714,2.327-1.113,4.754-1.219,7.408h-5.889c-0.471,0-0.856,0.387-0.856,0.864v0.08c0,0.477,0.384,0.864,0.856,0.864h5.889     c0.106,2.654,0.504,5.081,1.219,7.408l-3.434,1.31c-0.263,0.1-0.457,0.314-0.53,0.588c-0.074,0.27-0.01,0.561,0.171,0.781     c0.159,0.195,0.396,0.311,0.613,0.314c0.065,0.014,0.132,0.022,0.198,0.022c0.088,0,0.176-0.013,0.26-0.038     c0.081-0.025,0.169-0.056,0.267-0.101c0.703-0.319,1.464-0.597,2.136-0.843l0.627-0.231c0.075-0.027,0.152-0.052,0.231-0.075     c0.081,0.228,0.165,0.45,0.266,0.661l0.373,0.769c0.452,1.07,0.974,2.138,1.59,3.258l0.23,0.478     c0.035,0.074,0.072,0.142,0.111,0.199c0.16,0.249,0.416,0.39,0.704,0.39c0.409,0,0.785-0.299,0.85-0.656     c0.078-0.24,0.049-0.502-0.08-0.717c-0.942-1.587-1.696-3.176-2.3-4.851c1.956-0.47,3.809-0.716,5.65-0.75v7.018     c0,0.491,0.4,0.876,0.912,0.876c0.484,0,0.877-0.393,0.877-0.876v-7.018c1.842,0.035,3.695,0.28,5.65,0.75     c-0.606,1.677-1.359,3.265-2.3,4.85c-0.13,0.218-0.147,0.538-0.094,0.663c0.077,0.405,0.448,0.711,0.864,0.711     c0.288,0,0.544-0.142,0.703-0.387c0.039-0.059,0.077-0.126,0.11-0.198l0.22-0.457c0.62-1.129,1.142-2.199,1.591-3.26l0.385-0.795     c0.103-0.212,0.186-0.438,0.265-0.659c0.079,0.023,0.158,0.048,0.233,0.075l0.627,0.231c0.669,0.244,1.427,0.52,2.139,0.844     c0.097,0.043,0.182,0.075,0.262,0.1c0.153,0.043,0.358,0.045,0.425,0.02c0.254-0.007,0.493-0.126,0.653-0.324     c0.176-0.215,0.24-0.513,0.166-0.772c-0.072-0.276-0.266-0.491-0.529-0.591l-3.436-1.31c0.714-2.332,1.114-4.76,1.219-7.408     h5.889c0.471,0,0.854-0.384,0.854-0.856c0-0.02-0.003-0.038-0.006-0.049L120.04,95.014z M111.491,95.967     c-0.072,2.387-0.447,4.734-1.114,6.982l-0.278-0.052c-1.685-0.393-3.432-0.635-5.331-0.74l-0.609-0.048v-6.142H111.491z      M104.159,88.016l0.604-0.048c1.904-0.106,3.65-0.347,5.327-0.739l0.286-0.053c0.666,2.248,1.042,4.595,1.114,6.982h-7.332     V88.016z M101.688,102.162c-1.853,0.097-3.579,0.337-5.308,0.737c-0.087,0.016-0.173,0.033-0.259,0.049     c-0.666-2.242-1.042-4.588-1.116-6.982h7.333v6.142L101.688,102.162z M102.338,94.158h-7.333c0.074-2.394,0.45-4.74,1.116-6.982     c0.09,0.016,0.184,0.035,0.291,0.056c1.697,0.393,3.423,0.633,5.275,0.73l0.652,0.053V94.158z"></path><path fill="#c7f3ff" d="M103.249,72.606c-12.384,0-22.457,10.074-22.457,22.456c0,12.384,10.074,22.457,22.457,22.457     c12.382,0,22.456-10.074,22.456-22.457C125.704,82.68,115.631,72.606,103.249,72.606z M123.082,95.062     c0,10.937-8.897,19.835-19.834,19.835s-19.835-8.898-19.835-19.835s8.898-19.834,19.835-19.834S123.082,84.125,123.082,95.062z"></path></g><path fill="#c7f3ff" d="M29.143,81.366c0-0.938-0.051-1.851,0-2.801c0.038-2.155-1.724-3.638-3.689-3.613    c-6.477,0.013-13.005,0-19.533,0c-2.18,0-3.6,1.42-3.6,3.587v27.304c0,1.863,0,3.752-0.025,5.641    c-0.013,2.345,1.775,3.714,3.727,3.689c6.503-0.051,12.98-0.038,19.457-0.013c1.965,0.013,3.676-1.47,3.663-3.613    c-0.051-4.956-0.025-9.938-0.025-14.907C29.143,89.91,29.143,88.097,29.143,81.366z M15.669,113.816    c-1.166-0.025-2.13-0.989-2.13-2.155c0-1.166,0.963-2.13,2.13-2.13c1.179,0,2.13,0.963,2.13,2.104    C17.798,112.828,16.822,113.816,15.669,113.816z M25.873,108.15H5.465V79.896h20.408V108.15z"></path></g></g></g><g id="SvgjsG1328" featureKey="nameFeature-0" transform="matrix(1.5640886804582887,0,0,1.5640886804582887,51.68311637557484,156.17045913900063)" fill="#c7f3ff"><path d="M11.6 11.440000000000001 l6.68 19.64 l0.08 0 l6.32 -19.64 l8.84 0 l0 28.56 l-5.88 0 l0 -20.24 l-0.08 0 l-7 20.24 l-4.84 0 l-7 -20.04 l-0.08 0 l0 20.04 l-5.88 0 l0 -28.56 l8.84 0 z M56.49 11.440000000000001 c3.04 0 5.44 0.82668 7.2 2.48 s2.64 3.88 2.64 6.68 c0 2.8267 -0.88 5.06 -2.64 6.7 s-4.1468 2.46 -7.16 2.46 l-6.68 0 l0 10.24 l-6.28 0 l0 -28.56 l12.92 0 z M54.85 24.880000000000003 c1.8133 0 3.1667 -0.33332 4.06 -1 s1.34 -1.76 1.34 -3.28 c0 -1.4667 -0.43332 -2.5467 -1.3 -3.24 s-2.22 -1.04 -4.06 -1.04 l-5.04 0 l0 8.56 l5 0 z M84.62 10.760000000000002 c3.4933 0 6.2732 0.80004 8.34 2.4 s3.1 3.8667 3.1 6.8 l-6.08 0 c-0.08 -1.44 -0.56668 -2.52 -1.46 -3.24 s-2.2733 -1.08 -4.14 -1.08 c-1.3067 0 -2.36 0.28668 -3.16 0.86 s-1.2 1.3666 -1.2 2.38 c0 0.82668 0.24668 1.4267 0.74 1.8 s1.1933 0.70664 2.1 0.99996 s2.4934 0.72 4.76 1.28 c2.3733 0.58668 4.2 1.2267 5.48 1.92 s2.2533 1.58 2.92 2.66 s1 2.4067 1 3.98 c0 1.8133 -0.48 3.4266 -1.44 4.84 s-2.36 2.4866 -4.2 3.22 s-3.92 1.1 -6.24 1.1 c-3.5467 0 -6.46 -0.88668 -8.74 -2.66 s-3.42 -4.2068 -3.42 -7.3 l0 -0.2 l6.08 0 c0 1.68 0.57332 2.98 1.72 3.9 s2.6667 1.38 4.56 1.38 c1.68 0 3.0333 -0.3 4.06 -0.9 s1.54 -1.4867 1.54 -2.66 c0 -0.77332 -0.28 -1.4266 -0.84 -1.96 s-1.3067 -0.96664 -2.24 -1.3 s-2.5066 -0.75332 -4.72 -1.26 c-2.56 -0.64 -4.4268 -1.32 -5.6 -2.04 s-2.0666 -1.5933 -2.68 -2.62 s-0.92 -2.26 -0.92 -3.7 c0 -1.7867 0.51332 -3.3467 1.54 -4.68 s2.3667 -2.32 4.02 -2.96 s3.36 -0.96 5.12 -0.96 z M118.07000000000002 10.760000000000002 c3.3333 0 6.1332 0.94 8.4 2.82 s3.5734 4.3668 3.92 7.46 l-6.08 0 c-0.21332 -1.4133 -0.92 -2.6 -2.12 -3.56 s-2.5733 -1.44 -4.12 -1.44 c-2.4533 0 -4.36 0.88 -5.72 2.64 s-2.04 4.1468 -2.04 7.16 c0 2.9333 0.68668 5.26 2.06 6.98 s3.2733 2.58 5.7 2.58 c1.8133 0 3.28 -0.55332 4.4 -1.66 s1.8133 -2.6867 2.08 -4.74 l6.08 0 c-0.32 3.6267 -1.62 6.48 -3.9 8.56 s-5.1668 3.12 -8.66 3.12 c-4.1868 0 -7.5732 -1.38 -10.16 -4.14 s-3.88 -6.3268 -3.88 -10.7 c0 -4.4268 1.28 -8.0468 3.84 -10.86 s5.96 -4.22 10.2 -4.22 z"></path></g><g id="SvgjsG1329" featureKey="sloganFeature-0" transform="matrix(0.44965473528071237,0,0,0.44965473528071237,72.07194447462096,237.58085747273088)" fill="#c7f3ff"><path d="M3.08 5.720000000000001 l3.18 10.04 l0.04 0 l3.22 -10.04 l3.24 0 l-4.74 14.28 l-3.54 0 l-4.64 -14.28 l3.24 0 z M20.38 5.380000000000001 c2.1066 0 3.8034 0.7 5.09 2.1 s1.93 3.2134 1.93 5.44 c0 2.1734 -0.64666 3.9534 -1.94 5.34 s-2.9866 2.08 -5.08 2.08 c-2.1066 0 -3.8034 -0.69334 -5.09 -2.08 s-1.93 -3.1666 -1.93 -5.34 c0 -2.2134 0.64666 -4.0234 1.94 -5.43 s2.9866 -2.11 5.08 -2.11 z M16.5 12.92 c0 1.44 0.33998 2.5966 1.02 3.47 s1.6333 1.31 2.86 1.31 c1.2 0 2.1466 -0.43 2.84 -1.29 s1.04 -2.0234 1.04 -3.49 c0 -1.5333 -0.34334 -2.7334 -1.03 -3.6 s-1.6433 -1.3 -2.87 -1.3 c-1.2 0 -2.1434 0.43334 -2.83 1.3 s-1.03 2.0666 -1.03 3.6 z M32.68 5.720000000000001 l0 14.28 l-3.14 0 l0 -14.28 l3.14 0 z M41.84 5.380000000000001 c1.6667 0 3.0666 0.47 4.2 1.41 s1.7867 2.1834 1.96 3.73 l-3.04 0 c-0.10666 -0.70666 -0.46 -1.3 -1.06 -1.78 s-1.2867 -0.72 -2.06 -0.72 c-1.2267 0 -2.18 0.44 -2.86 1.32 s-1.02 2.0734 -1.02 3.58 c0 1.4667 0.34334 2.63 1.03 3.49 s1.6367 1.29 2.85 1.29 c0.90666 0 1.64 -0.27666 2.2 -0.83 s0.90666 -1.3433 1.04 -2.37 l3.04 0 c-0.16 1.8133 -0.81 3.24 -1.95 4.28 s-2.5834 1.56 -4.33 1.56 c-2.0934 0 -3.7866 -0.69 -5.08 -2.07 s-1.94 -3.1634 -1.94 -5.35 c0 -2.2134 0.64 -4.0234 1.92 -5.43 s2.98 -2.11 5.1 -2.11 z M60.940000000000005 5.720000000000001 l0 2.64 l-7.54 0 l0 3.06 l6.92 0 l0 2.44 l-6.92 0 l0 3.5 l7.7 0 l0 2.64 l-10.84 0 l0 -14.28 l10.68 0 z M75.18 5.380000000000001 c1.6667 0 3.0666 0.47 4.2 1.41 s1.7867 2.1834 1.96 3.73 l-3.04 0 c-0.10666 -0.70666 -0.46 -1.3 -1.06 -1.78 s-1.2867 -0.72 -2.06 -0.72 c-1.2267 0 -2.18 0.44 -2.86 1.32 s-1.02 2.0734 -1.02 3.58 c0 1.4667 0.34334 2.63 1.03 3.49 s1.6367 1.29 2.85 1.29 c0.90666 0 1.64 -0.27666 2.2 -0.83 s0.90666 -1.3433 1.04 -2.37 l3.04 0 c-0.16 1.8133 -0.81 3.24 -1.95 4.28 s-2.5834 1.56 -4.33 1.56 c-2.0934 0 -3.7866 -0.69 -5.08 -2.07 s-1.94 -3.1634 -1.94 -5.35 c0 -2.2134 0.64 -4.0234 1.92 -5.43 s2.98 -2.11 5.1 -2.11 z M90 5.380000000000001 c2.1066 0 3.8034 0.7 5.09 2.1 s1.93 3.2134 1.93 5.44 c0 2.1734 -0.64666 3.9534 -1.94 5.34 s-2.9866 2.08 -5.08 2.08 c-2.1066 0 -3.8034 -0.69334 -5.09 -2.08 s-1.93 -3.1666 -1.93 -5.34 c0 -2.2134 0.64666 -4.0234 1.94 -5.43 s2.9866 -2.11 5.08 -2.11 z M86.12 12.92 c0 1.44 0.33998 2.5966 1.02 3.47 s1.6333 1.31 2.86 1.31 c1.2 0 2.1466 -0.43 2.84 -1.29 s1.04 -2.0234 1.04 -3.49 c0 -1.5333 -0.34334 -2.7334 -1.03 -3.6 s-1.6433 -1.3 -2.87 -1.3 c-1.2 0 -2.1434 0.43334 -2.83 1.3 s-1.03 2.0666 -1.03 3.6 z M102.28 5.720000000000001 l5.96 9.58 l0.04 0 l0 -9.58 l2.94 0 l0 14.28 l-3.14 0 l-5.94 -9.56 l-0.04 0 l0 9.56 l-2.94 0 l0 -14.28 l3.12 0 z M124.02 5.720000000000001 l0 2.64 l-6.9 0 l0 3.3 l5.98 0 l0 2.44 l-5.98 0 l0 5.9 l-3.14 0 l0 -14.28 l10.04 0 z M136.51999999999998 5.720000000000001 l0 2.64 l-7.54 0 l0 3.06 l6.92 0 l0 2.44 l-6.92 0 l0 3.5 l7.7 0 l0 2.64 l-10.84 0 l0 -14.28 l10.68 0 z M146.5 5.720000000000001 c1.2 0 2.1968 0.37 2.99 1.11 s1.19 1.6833 1.19 2.83 c0 1.7867 -0.75334 2.98 -2.26 3.58 l0 0.04 c0.50666 0.14666 0.90332 0.39 1.19 0.73 s0.50332 0.73666 0.64998 1.19 s0.24 1.18 0.28 2.18 c0.05334 1.3067 0.24 2.18 0.56 2.62 l-3.14 0 c-0.17334 -0.44 -0.30668 -1.2667 -0.40002 -2.48 c-0.10666 -1.28 -0.34 -2.1166 -0.7 -2.51 s-0.94666 -0.59 -1.76 -0.59 l-3.16 0 l0 5.58 l-3.14 0 l0 -14.28 l7.7 0 z M145.39999999999998 12.18 c0.66666 0 1.19 -0.15 1.57 -0.45 s0.57 -0.83 0.57 -1.59 c0 -0.72 -0.18666 -1.23 -0.56 -1.53 s-0.90668 -0.45 -1.6 -0.45 l-3.44 0 l0 4.02 l3.46 0 z M163.92 5.720000000000001 l0 2.64 l-7.54 0 l0 3.06 l6.92 0 l0 2.44 l-6.92 0 l0 3.5 l7.7 0 l0 2.64 l-10.84 0 l0 -14.28 l10.68 0 z M169.32 5.720000000000001 l5.96 9.58 l0.04 0 l0 -9.58 l2.94 0 l0 14.28 l-3.14 0 l-5.94 -9.56 l-0.04 0 l0 9.56 l-2.94 0 l0 -14.28 l3.12 0 z M187.42 5.380000000000001 c1.6667 0 3.0666 0.47 4.2 1.41 s1.7867 2.1834 1.96 3.73 l-3.04 0 c-0.10666 -0.70666 -0.46 -1.3 -1.06 -1.78 s-1.2867 -0.72 -2.06 -0.72 c-1.2267 0 -2.18 0.44 -2.86 1.32 s-1.02 2.0734 -1.02 3.58 c0 1.4667 0.34334 2.63 1.03 3.49 s1.6367 1.29 2.85 1.29 c0.90666 0 1.64 -0.27666 2.2 -0.83 s0.90666 -1.3433 1.04 -2.37 l3.04 0 c-0.16 1.8133 -0.81 3.24 -1.95 4.28 s-2.5834 1.56 -4.33 1.56 c-2.0934 0 -3.7866 -0.69 -5.08 -2.07 s-1.94 -3.1634 -1.94 -5.35 c0 -2.2134 0.64 -4.0234 1.92 -5.43 s2.98 -2.11 5.1 -2.11 z M198.98 5.720000000000001 l0 14.28 l-3.14 0 l0 -14.28 l3.14 0 z M204.85999999999999 5.720000000000001 l5.96 9.58 l0.04 0 l0 -9.58 l2.94 0 l0 14.28 l-3.14 0 l-5.94 -9.56 l-0.04 0 l0 9.56 l-2.94 0 l0 -14.28 l3.12 0 z M222.95999999999998 5.380000000000001 c1.6267 0 3.0066 0.47336 4.14 1.42 s1.76 2.1534 1.88 3.62 l-3 0 c-0.18666 -0.8 -0.54666 -1.4 -1.08 -1.8 s-1.18 -0.6 -1.94 -0.6 c-1.2267 0 -2.18 0.44334 -2.86 1.33 s-1.02 2.0766 -1.02 3.57 c0 1.4667 0.34666 2.63 1.04 3.49 s1.64 1.29 2.84 1.29 c2.0534 0 3.1866 -1.0267 3.4 -3.08 l-3.16 0 l0 -2.34 l6 0 l0 7.72 l-2 0 l-0.32 -1.62 c-1 1.3067 -2.3066 1.96 -3.92 1.96 c-2.1066 0 -3.8034 -0.69334 -5.09 -2.08 s-1.93 -3.1666 -1.93 -5.34 c0 -2.2134 0.64 -4.0234 1.92 -5.43 s2.98 -2.11 5.1 -2.11 z M244.42 5.720000000000001 l5.34 14.28 l-3.26 0 l-1.08 -3.18 l-5.34 0 l-1.12 3.18 l-3.18 0 l5.42 -14.28 l3.22 0 z M242.76 9.24 l-1.86 5.24 l3.7 0 l-1.8 -5.24 l-0.04 0 z M255.92 5.380000000000001 c1.7467 0 3.1366 0.40002 4.17 1.2 s1.55 1.9333 1.55 3.4 l-3.04 0 c-0.04 -0.72 -0.28334 -1.26 -0.73 -1.62 s-1.1367 -0.54 -2.07 -0.54 c-0.65334 0 -1.18 0.14334 -1.58 0.43 s-0.6 0.68332 -0.6 1.19 c0 0.41334 0.12334 0.71334 0.37 0.9 s0.59666 0.35332 1.05 0.49998 s1.2467 0.36 2.38 0.64 c1.1867 0.29334 2.1 0.61334 2.74 0.96 s1.1267 0.79 1.46 1.33 s0.5 1.2033 0.5 1.99 c0 0.90666 -0.24 1.7133 -0.72 2.42 s-1.18 1.2433 -2.1 1.61 s-1.96 0.55 -3.12 0.55 c-1.7733 0 -3.23 -0.44334 -4.37 -1.33 s-1.71 -2.1034 -1.71 -3.65 l0 -0.1 l3.04 0 c0 0.84 0.28666 1.49 0.86 1.95 s1.3333 0.69 2.28 0.69 c0.84 0 1.5167 -0.15 2.03 -0.45 s0.77 -0.74334 0.77 -1.33 c0 -0.38666 -0.14 -0.71332 -0.42 -0.97998 s-0.65334 -0.48332 -1.12 -0.64998 s-1.2533 -0.37666 -2.36 -0.63 c-1.28 -0.32 -2.2134 -0.66 -2.8 -1.02 s-1.0333 -0.79666 -1.34 -1.31 s-0.46 -1.13 -0.46 -1.85 c0 -0.89334 0.25666 -1.6733 0.77 -2.34 s1.1833 -1.16 2.01 -1.48 s1.68 -0.48 2.56 -0.48 z M276.65999999999997 5.720000000000001 l5.34 14.28 l-3.26 0 l-1.08 -3.18 l-5.34 0 l-1.12 3.18 l-3.18 0 l5.42 -14.28 l3.22 0 z M274.99999999999994 9.24 l-1.86 5.24 l3.7 0 l-1.8 -5.24 l-0.04 0 z M293.71999999999997 5.380000000000001 c1.7467 0 3.1366 0.40002 4.17 1.2 s1.55 1.9333 1.55 3.4 l-3.04 0 c-0.04 -0.72 -0.28334 -1.26 -0.73 -1.62 s-1.1367 -0.54 -2.07 -0.54 c-0.65334 0 -1.18 0.14334 -1.58 0.43 s-0.6 0.68332 -0.6 1.19 c0 0.41334 0.12334 0.71334 0.37 0.9 s0.59666 0.35332 1.05 0.49998 s1.2467 0.36 2.38 0.64 c1.1867 0.29334 2.1 0.61334 2.74 0.96 s1.1267 0.79 1.46 1.33 s0.5 1.2033 0.5 1.99 c0 0.90666 -0.24 1.7133 -0.72 2.42 s-1.18 1.2433 -2.1 1.61 s-1.96 0.55 -3.12 0.55 c-1.7733 0 -3.23 -0.44334 -4.37 -1.33 s-1.71 -2.1034 -1.71 -3.65 l0 -0.1 l3.04 0 c0 0.84 0.28666 1.49 0.86 1.95 s1.3333 0.69 2.28 0.69 c0.84 0 1.5167 -0.15 2.03 -0.45 s0.77 -0.74334 0.77 -1.33 c0 -0.38666 -0.14 -0.71332 -0.42 -0.97998 s-0.65334 -0.48332 -1.12 -0.64998 s-1.2533 -0.37666 -2.36 -0.63 c-1.28 -0.32 -2.2134 -0.66 -2.8 -1.02 s-1.0333 -0.79666 -1.34 -1.31 s-0.46 -1.13 -0.46 -1.85 c0 -0.89334 0.25666 -1.6733 0.77 -2.34 s1.1833 -1.16 2.01 -1.48 s1.68 -0.48 2.56 -0.48 z M312.46 5.720000000000001 l0 2.64 l-7.54 0 l0 3.06 l6.92 0 l0 2.44 l-6.92 0 l0 3.5 l7.7 0 l0 2.64 l-10.84 0 l0 -14.28 l10.68 0 z M322.43999999999994 5.720000000000001 c1.2 0 2.1968 0.37 2.99 1.11 s1.19 1.6833 1.19 2.83 c0 1.7867 -0.75334 2.98 -2.26 3.58 l0 0.04 c0.50666 0.14666 0.90332 0.39 1.19 0.73 s0.50332 0.73666 0.64998 1.19 s0.24 1.18 0.28 2.18 c0.05334 1.3067 0.24 2.18 0.56 2.62 l-3.14 0 c-0.17334 -0.44 -0.30668 -1.2667 -0.40002 -2.48 c-0.10666 -1.28 -0.34 -2.1166 -0.7 -2.51 s-0.94666 -0.59 -1.76 -0.59 l-3.16 0 l0 5.58 l-3.14 0 l0 -14.28 l7.7 0 z M321.34 12.18 c0.66666 0 1.19 -0.15 1.57 -0.45 s0.57 -0.83 0.57 -1.59 c0 -0.72 -0.18666 -1.23 -0.56 -1.53 s-0.90668 -0.45 -1.6 -0.45 l-3.44 0 l0 4.02 l3.46 0 z M330.99999999999994 5.720000000000001 l3.18 10.04 l0.04 0 l3.22 -10.04 l3.24 0 l-4.74 14.28 l-3.54 0 l-4.64 -14.28 l3.24 0 z M345.03999999999996 5.720000000000001 l0 14.28 l-3.14 0 l0 -14.28 l3.14 0 z M354.19999999999993 5.380000000000001 c1.6667 0 3.0666 0.47 4.2 1.41 s1.7867 2.1834 1.96 3.73 l-3.04 0 c-0.10666 -0.70666 -0.46 -1.3 -1.06 -1.78 s-1.2867 -0.72 -2.06 -0.72 c-1.2267 0 -2.18 0.44 -2.86 1.32 s-1.02 2.0734 -1.02 3.58 c0 1.4667 0.34334 2.63 1.03 3.49 s1.6367 1.29 2.85 1.29 c0.90666 0 1.64 -0.27666 2.2 -0.83 s0.90666 -1.3433 1.04 -2.37 l3.04 0 c-0.16 1.8133 -0.81 3.24 -1.95 4.28 s-2.5834 1.56 -4.33 1.56 c-2.0934 0 -3.7866 -0.69 -5.08 -2.07 s-1.94 -3.1634 -1.94 -5.35 c0 -2.2134 0.64 -4.0234 1.92 -5.43 s2.98 -2.11 5.1 -2.11 z M373.29999999999995 5.720000000000001 l0 2.64 l-7.54 0 l0 3.06 l6.92 0 l0 2.44 l-6.92 0 l0 3.5 l7.7 0 l0 2.64 l-10.84 0 l0 -14.28 l10.68 0 z"></path></g>
			</g>
		</svg>
	