<svg width="49" height="48" viewBox="0 0 49 48" fill="none" xmlns="http://www.w3.org/2000/svg">
<rect x="0.666016" width="48" height="48" rx="10" fill="#0E9384"/>
<path d="M23.666 15H20.466C18.7859 15 17.9458 15 17.304 15.327C16.7396 15.6146 16.2806 16.0735 15.993 16.638C15.666 17.2798 15.666 18.1198 15.666 19.8V28.2C15.666 29.8802 15.666 30.7202 15.993 31.362C16.2806 31.9265 16.7396 32.3854 17.304 32.673C17.9458 33 18.7859 33 20.466 33H28.866C30.5462 33 31.3863 33 32.028 32.673C32.5925 32.3854 33.0514 31.9265 33.339 31.362C33.666 30.7202 33.666 29.8802 33.666 28.2V25M24.666 20H28.666V24M28.166 15.5V14M32.1054 16.5607L33.166 15.5M33.1763 20.5H34.6763M15.666 25.3471C16.318 25.4478 16.9859 25.5 17.666 25.5C22.0524 25.5 25.9313 23.3276 28.2857 20" stroke="white" stroke-width="2" stroke-linecap="round" stroke-linejoin="round"/>
</svg>
