<svg xmlns="http://www.w3.org/2000/svg" xmlns:xlink="http://www.w3.org/1999/xlink" width="1024" zoomAndPan="magnify" viewBox="0 0 768 576" height="768" preserveAspectRatio="xMidYMid meet" version="1.0"><path fill="#2f8555" d="M 662.789062 324.949219 L 642.015625 402.496094 C 639.507812 411.828125 630.554688 418.03125 621.101562 417.308594 L 564.789062 412.992188 C 548.191406 438.179688 528.039062 458.292969 502.992188 474.789062 L 507.308594 531.105469 C 508.050781 540.71875 501.828125 549.507812 492.496094 552.015625 L 414.949219 572.789062 C 405.9375 575.257812 395.941406 571.003906 391.648438 562.070312 L 367.300781 511.296875 C 338.019531 509.449219 309.21875 501.683594 282.828125 488.535156 L 236.226562 520.425781 C 228.257812 525.886719 217.523438 524.882812 210.71875 518.058594 L 153.960938 461.300781 C 147.136719 454.476562 146.132812 443.742188 151.59375 435.792969 L 183.484375 389.191406 C 170.339844 362.78125 162.570312 334 160.726562 304.71875 L 109.949219 280.375 C 101.238281 276.199219 96.742188 266.40625 99.230469 257.074219 L 120.003906 179.523438 C 122.472656 170.171875 131.203125 163.96875 140.894531 164.710938 L 197.210938 169.027344 C 213.808594 143.820312 233.960938 123.730469 258.984375 107.230469 L 254.691406 50.917969 C 253.949219 41.285156 260.171875 32.492188 269.503906 30.003906 L 347.050781 9.230469 C 356.382812 6.703125 366.179688 11.257812 370.351562 19.949219 L 399.957031 81.703125 C 404.753906 91.699219 400.515625 103.679688 390.523438 108.476562 C 380.566406 113.273438 368.527344 109.058594 363.75 99.042969 L 341.351562 52.320312 L 295.996094 64.464844 L 299.96875 116.324219 C 300.550781 123.96875 296.71875 131.316406 290.074219 135.167969 C 261.375 151.925781 240.84375 173.203125 225.148438 200.074219 C 221.273438 206.738281 213.929688 210.671875 206.304688 209.96875 L 154.441406 205.996094 L 142.300781 251.351562 L 189.023438 273.75 C 195.945312 277.101562 200.363281 284.085938 200.402344 291.773438 C 200.542969 322.71875 208.792969 353.40625 224.304688 380.5 C 228.117188 387.183594 227.796875 395.453125 223.441406 401.796875 L 194.101562 444.703125 L 227.296875 477.898438 L 270.203125 448.558594 C 276.527344 444.203125 284.816406 443.882812 291.5 447.695312 C 318.59375 463.1875 349.257812 471.457031 380.226562 471.597656 C 387.914062 471.617188 394.898438 476.054688 398.230469 482.996094 L 420.628906 529.71875 L 465.984375 517.578125 L 462.011719 465.71875 C 461.429688 458.070312 465.261719 450.726562 471.90625 446.871094 C 500.585938 430.113281 521.117188 408.820312 536.808594 381.964844 C 540.683594 375.324219 548.070312 371.550781 555.65625 372.070312 L 607.515625 376.046875 L 619.65625 330.6875 L 572.9375 308.289062 C 562.941406 303.492188 558.726562 291.511719 563.503906 281.515625 C 568.300781 271.503906 580.320312 267.308594 590.277344 272.085938 L 652.03125 301.6875 C 660.78125 305.84375 665.277344 315.636719 662.789062 324.949219 Z M 662.789062 324.949219 " fill-opacity="1" fill-rule="nonzero"/><path fill="#2f8555" d="M 513.488281 337.832031 C 493.679688 393.867188 440.4375 431.5 380.988281 431.5 C 303.519531 431.5 240.5 368.480469 240.5 291.011719 C 240.5 231.5625 278.132812 178.320312 334.167969 158.511719 C 344.625 154.796875 356.082031 160.296875 359.777344 170.753906 C 363.46875 181.210938 357.988281 192.667969 347.535156 196.363281 C 307.515625 210.511719 280.640625 248.542969 280.640625 291.011719 C 280.640625 346.34375 325.65625 391.359375 380.988281 391.359375 C 423.457031 391.359375 461.488281 364.484375 475.636719 324.464844 C 479.332031 314.011719 490.832031 308.492188 501.246094 312.222656 C 511.703125 315.917969 517.183594 327.375 513.488281 337.832031 Z M 513.488281 337.832031 " fill-opacity="1" fill-rule="nonzero"/><path fill="#2f8555" d="M 425.523438 161.339844 C 414.484375 120.097656 426.027344 75.664062 456.613281 45.097656 C 491.753906 9.933594 545.941406 0.199219 591.460938 20.871094 C 597.460938 23.601562 601.734375 29.082031 602.898438 35.5625 C 604.0625 42.046875 601.996094 48.6875 597.339844 53.34375 L 525.128906 125.554688 L 529.707031 142.273438 L 546.425781 146.851562 L 618.632812 74.640625 C 623.269531 69.984375 629.933594 67.894531 636.417969 69.078125 C 642.917969 70.242188 648.398438 74.519531 651.128906 80.519531 C 671.800781 126.039062 662.066406 180.226562 626.902344 215.367188 C 596.335938 245.953125 551.964844 257.492188 510.660156 246.457031 L 395.179688 361.957031 C 387.332031 369.804688 374.648438 369.804688 366.800781 361.957031 C 358.953125 354.109375 358.953125 341.425781 366.800781 333.578125 L 490.992188 209.386719 C 496.609375 203.746094 505.101562 201.960938 512.484375 204.890625 C 542.25 216.550781 576.027344 209.507812 598.523438 186.988281 C 614.21875 171.292969 622.289062 149.878906 621.726562 128.304688 L 566.59375 183.4375 C 561.515625 188.535156 554.050781 190.480469 547.125 188.613281 L 508.089844 177.976562 C 501.246094 176.113281 495.886719 170.753906 494 163.890625 L 483.363281 124.855469 C 481.476562 117.910156 483.445312 110.464844 488.542969 105.386719 L 543.675781 50.253906 C 522.339844 49.773438 500.683594 57.78125 484.992188 73.457031 C 462.472656 95.972656 455.449219 129.730469 467.089844 159.492188 C 470 166.917969 468.230469 175.367188 462.59375 180.988281 L 338.402344 305.179688 C 330.554688 313.027344 317.871094 313.027344 310.023438 305.179688 C 302.175781 297.332031 302.175781 284.648438 310.023438 276.800781 Z M 425.523438 161.339844 " fill-opacity="1" fill-rule="nonzero"/></svg>