<svg xmlns="http://www.w3.org/2000/svg" xmlns:xlink="http://www.w3.org/1999/xlink" width="1024" zoomAndPan="magnify" viewBox="0 0 768 576" height="768" preserveAspectRatio="xMidYMid meet" version="1.0"><defs><clipPath id="89d1c130bf"><path d="M 13.65625 60 L 754.65625 60 L 754.65625 516.484375 L 13.65625 516.484375 Z M 13.65625 60 " clip-rule="nonzero"/></clipPath><clipPath id="87391bbccf"><path d="M 13.65625 60 L 754.65625 60 L 754.65625 516.484375 L 13.65625 516.484375 Z M 13.65625 60 " clip-rule="nonzero"/></clipPath></defs><path fill="#91dbef" d="M 85.21875 509.644531 L 682.519531 509.644531 C 720.632812 494.558594 747.65625 457.421875 747.65625 413.925781 C 747.65625 357.039062 701.558594 310.90625 644.675781 310.90625 C 636.082031 310.90625 627.765625 311.988281 619.78125 313.949219 C 621 307.082031 621.640625 300.046875 621.640625 292.84375 C 621.640625 225.976562 567.460938 171.761719 500.601562 171.761719 C 481.828125 171.761719 464.039062 176.054688 448.210938 183.664062 C 427.140625 116.023438 364.066406 66.910156 289.496094 66.910156 C 197.707031 66.910156 123.300781 141.320312 123.300781 233.113281 C 123.300781 262.03125 130.707031 289.257812 143.730469 312.933594 C 137.132812 311.617188 130.304688 310.90625 123.300781 310.90625 C 66.417969 310.90625 20.320312 357.039062 20.320312 413.925781 C 20.320312 457.355469 47.207031 494.492188 85.21875 509.644531 " fill-opacity="1" fill-rule="nonzero"/><g clip-path="url(#89d1c130bf)"><path fill="#030f1a" d="M 85.21875 509.644531 L 85.21875 516.410156 L 683.804688 516.410156 L 685.019531 515.933594 C 705.3125 507.886719 722.664062 493.984375 734.941406 476.296875 C 747.214844 458.605469 754.421875 437.0625 754.421875 413.925781 C 754.421875 353.285156 705.28125 304.140625 644.675781 304.140625 C 635.507812 304.140625 626.648438 305.257812 618.160156 307.386719 L 619.78125 313.949219 L 626.445312 315.132812 C 627.695312 307.894531 628.40625 300.453125 628.40625 292.84375 C 628.40625 222.222656 571.183594 165.03125 500.601562 164.996094 C 480.78125 164.996094 462.011719 169.527344 445.269531 177.578125 L 448.210938 183.667969 L 454.671875 181.636719 C 443.714844 146.429688 421.832031 116.089844 392.984375 94.511719 C 364.136719 72.933594 328.285156 60.148438 289.496094 60.148438 C 193.984375 60.148438 116.570312 137.601562 116.539062 233.113281 C 116.539062 263.183594 124.25 291.523438 137.777344 316.179688 L 143.730469 312.933594 L 145.046875 306.304688 C 138.046875 304.886719 130.777344 304.140625 123.300781 304.140625 C 62.695312 304.140625 13.554688 353.285156 13.554688 413.925781 C 13.554688 437.027344 20.726562 458.539062 32.933594 476.226562 C 45.175781 493.917969 62.425781 507.851562 82.71875 515.933594 L 83.933594 516.410156 L 85.21875 516.410156 L 85.21875 509.644531 L 87.722656 503.355469 C 69.96875 496.285156 54.78125 484.042969 44.0625 468.515625 C 33.339844 452.992188 27.082031 434.222656 27.082031 413.929688 C 27.082031 387.308594 37.839844 363.296875 55.257812 345.84375 C 72.707031 328.425781 96.71875 317.667969 123.300781 317.667969 C 129.863281 317.667969 136.222656 318.3125 142.375 319.5625 L 156.648438 322.40625 L 149.648438 309.6875 C 137.167969 286.960938 130.066406 260.882812 130.066406 233.113281 C 130.066406 189.078125 147.921875 149.234375 176.773438 120.382812 C 205.652344 91.535156 245.460938 73.675781 289.496094 73.675781 C 325.277344 73.675781 358.25 85.445312 384.867188 105.332031 C 411.484375 125.222656 431.675781 153.261719 441.753906 185.695312 L 444.050781 193.171875 L 451.121094 189.753906 C 466.101562 182.582031 482.84375 178.558594 500.601562 178.523438 C 532.152344 178.558594 560.699219 191.308594 581.394531 212.007812 C 602.09375 232.742188 614.878906 261.253906 614.878906 292.84375 C 614.878906 299.640625 614.269531 306.273438 613.121094 312.765625 L 611.328125 323.011719 L 621.40625 320.511719 C 628.878906 318.652344 636.625 317.667969 644.675781 317.667969 C 671.257812 317.667969 695.269531 328.425781 712.71875 345.84375 C 730.136719 363.296875 740.890625 387.308594 740.890625 413.929688 C 740.890625 434.253906 734.601562 453.058594 723.847656 468.585938 C 713.058594 484.109375 697.839844 496.320312 680.015625 503.355469 L 682.519531 509.644531 L 682.519531 502.878906 L 85.21875 502.878906 L 85.21875 509.644531 L 87.722656 503.355469 L 85.21875 509.644531 " fill-opacity="1" fill-rule="nonzero"/></g><path fill="#91dbef" d="M 85.21875 509.644531 L 682.519531 509.644531 C 720.632812 494.558594 747.65625 457.421875 747.65625 413.925781 C 747.65625 357.039062 701.558594 310.90625 644.675781 310.90625 C 636.082031 310.90625 627.765625 311.988281 619.78125 313.949219 C 621 307.082031 621.640625 300.046875 621.640625 292.84375 C 621.640625 225.976562 567.460938 171.761719 500.601562 171.761719 C 481.828125 171.761719 464.039062 176.054688 448.210938 183.664062 C 427.140625 116.023438 364.066406 66.910156 289.496094 66.910156 C 197.707031 66.910156 123.300781 141.320312 123.300781 233.113281 C 123.300781 262.03125 130.707031 289.257812 143.730469 312.933594 C 137.132812 311.617188 130.304688 310.90625 123.300781 310.90625 C 66.417969 310.90625 20.320312 357.039062 20.320312 413.925781 C 20.320312 457.355469 47.207031 494.492188 85.21875 509.644531 " fill-opacity="1" fill-rule="nonzero"/><g clip-path="url(#87391bbccf)"><path fill="#030f1a" d="M 85.21875 509.644531 L 85.21875 516.410156 L 682.519531 516.410156 C 683.363281 516.410156 684.210938 516.238281 685.019531 515.933594 C 705.3125 507.886719 722.664062 493.984375 734.941406 476.296875 C 747.214844 458.605469 754.421875 437.0625 754.421875 413.925781 C 754.421875 353.285156 705.28125 304.140625 644.675781 304.140625 C 635.507812 304.140625 626.648438 305.257812 618.160156 307.386719 L 619.78125 313.949219 L 626.445312 315.132812 C 627.695312 307.894531 628.40625 300.453125 628.40625 292.84375 C 628.40625 222.222656 571.183594 165.03125 500.601562 164.996094 C 480.78125 164.996094 462.011719 169.527344 445.269531 177.578125 L 448.210938 183.667969 L 454.671875 181.636719 C 443.714844 146.429688 421.832031 116.089844 392.984375 94.511719 C 364.136719 72.933594 328.285156 60.148438 289.496094 60.148438 C 193.984375 60.148438 116.570312 137.601562 116.539062 233.113281 C 116.539062 263.183594 124.25 291.523438 137.777344 316.179688 L 143.730469 312.933594 L 145.046875 306.304688 C 138.046875 304.886719 130.777344 304.140625 123.300781 304.140625 C 62.695312 304.140625 13.554688 353.285156 13.554688 413.925781 C 13.554688 437.027344 20.726562 458.539062 32.933594 476.226562 C 45.175781 493.917969 62.425781 507.851562 82.71875 515.933594 C 83.496094 516.238281 84.375 516.410156 85.21875 516.410156 L 85.21875 509.644531 L 87.722656 503.355469 C 69.96875 496.285156 54.78125 484.042969 44.0625 468.515625 C 33.339844 452.992188 27.082031 434.222656 27.082031 413.929688 C 27.082031 387.308594 37.839844 363.296875 55.257812 345.84375 C 72.707031 328.425781 96.71875 317.667969 123.300781 317.667969 C 129.863281 317.667969 136.222656 318.3125 142.375 319.5625 C 144.980469 320.070312 147.617188 319.054688 149.175781 316.925781 C 150.730469 314.828125 150.933594 311.988281 149.648438 309.6875 C 137.167969 286.960938 130.066406 260.882812 130.066406 233.113281 C 130.066406 189.078125 147.921875 149.234375 176.773438 120.382812 C 205.652344 91.535156 245.460938 73.675781 289.496094 73.675781 C 325.277344 73.675781 358.25 85.445312 384.867188 105.332031 C 411.484375 125.222656 431.675781 153.261719 441.753906 185.695312 C 442.328125 187.554688 443.714844 189.078125 445.507812 189.855469 C 447.300781 190.632812 449.363281 190.601562 451.121094 189.753906 C 466.101562 182.582031 482.84375 178.558594 500.601562 178.523438 C 532.152344 178.558594 560.699219 191.308594 581.394531 212.007812 C 602.09375 232.742188 614.878906 261.253906 614.878906 292.84375 C 614.878906 299.640625 614.269531 306.273438 613.121094 312.765625 C 612.714844 315.03125 613.492188 317.332031 615.148438 318.886719 C 616.839844 320.441406 619.171875 321.050781 621.40625 320.511719 C 628.878906 318.652344 636.625 317.667969 644.675781 317.667969 C 671.257812 317.667969 695.269531 328.425781 712.71875 345.84375 C 730.136719 363.296875 740.890625 387.308594 740.890625 413.925781 C 740.890625 434.253906 734.601562 453.058594 723.847656 468.585938 C 713.058594 484.109375 697.839844 496.320312 680.015625 503.355469 L 682.519531 509.644531 L 682.519531 502.878906 L 85.21875 502.878906 L 85.21875 509.644531 L 87.722656 503.355469 L 85.21875 509.644531 " fill-opacity="1" fill-rule="nonzero"/></g><path fill="#52c6e5" d="M 681.199219 502.878906 L 86.539062 502.878906 C 69.292969 495.742188 54.546875 483.703125 44.0625 468.515625 C 33.339844 452.992188 27.082031 434.222656 27.082031 413.925781 C 27.082031 387.308594 37.839844 363.296875 55.257812 345.84375 C 72.707031 328.425781 96.71875 317.667969 123.300781 317.667969 C 129.863281 317.667969 136.222656 318.3125 142.375 319.5625 C 142.851562 319.664062 143.289062 319.699219 143.730469 319.699219 C 145.859375 319.699219 147.890625 318.683594 149.175781 316.925781 C 150.730469 314.828125 150.933594 311.988281 149.648438 309.6875 C 137.167969 286.960938 130.066406 260.882812 130.066406 233.113281 C 130.066406 189.078125 147.921875 149.234375 176.773438 120.382812 C 205.65625 91.535156 245.460938 73.675781 289.496094 73.675781 C 292.570312 73.675781 295.648438 73.777344 298.695312 73.945312 C 266.96875 85.515625 238.898438 103.066406 219.488281 134.21875 C 185.496094 188.839844 184.449219 260.8125 217.324219 315.707031 C 186.34375 324.703125 160.300781 346.519531 148.09375 376.722656 C 136.355469 405.742188 148.226562 439.464844 172.714844 457.59375 C 193.816406 473.25 223.410156 475.621094 249.789062 475.621094 C 254.1875 475.621094 258.480469 475.550781 262.640625 475.484375 L 539.863281 476.9375 C 701.085938 467.90625 681.875 360.828125 681.875 360.828125 C 680.761719 346.28125 674.199219 333.601562 661.078125 319.054688 C 681.0625 322.472656 698.957031 332.078125 712.71875 345.84375 C 730.136719 363.296875 740.890625 387.308594 740.890625 413.925781 C 740.890625 434.253906 734.601562 453.058594 723.847656 468.585938 C 713.296875 483.738281 698.515625 495.777344 681.199219 502.878906 " fill-opacity="1" fill-rule="nonzero"/><path fill="#030f19" d="M 682.519531 509.644531 L 85.21875 509.644531 L 87.722656 503.355469 L 85.21875 509.644531 C 47.207031 494.492188 20.320312 457.355469 20.320312 413.925781 C 20.320312 357.039062 66.417969 310.90625 123.300781 310.90625 C 130.304688 310.90625 137.132812 311.617188 143.730469 312.933594 C 130.707031 289.257812 123.300781 262.03125 123.300781 233.113281 C 123.300781 141.320312 197.707031 66.910156 289.496094 66.910156 C 297.914062 66.910156 306.203125 67.589844 314.285156 68.773438 C 309.007812 70.363281 303.800781 72.085938 298.695312 73.945312 C 295.648438 73.777344 292.570312 73.675781 289.496094 73.675781 C 245.460938 73.675781 205.652344 91.535156 176.773438 120.382812 C 147.921875 149.234375 130.066406 189.078125 130.066406 233.113281 C 130.066406 260.882812 137.167969 286.960938 149.648438 309.6875 C 150.933594 311.988281 150.730469 314.828125 149.175781 316.925781 C 147.890625 318.683594 145.859375 319.699219 143.730469 319.699219 C 143.289062 319.699219 142.851562 319.664062 142.375 319.5625 C 136.222656 318.3125 129.863281 317.667969 123.300781 317.667969 C 96.71875 317.667969 72.707031 328.425781 55.257812 345.84375 C 37.839844 363.296875 27.082031 387.308594 27.082031 413.929688 C 27.082031 434.222656 33.339844 452.992188 44.0625 468.515625 C 54.546875 483.703125 69.292969 495.742188 86.539062 502.878906 L 681.199219 502.878906 C 698.515625 495.777344 713.296875 483.738281 723.847656 468.585938 C 734.601562 453.058594 740.890625 434.253906 740.890625 413.929688 C 740.890625 387.308594 730.136719 363.296875 712.71875 345.84375 C 698.957031 332.078125 681.0625 322.472656 661.078125 319.054688 C 658.8125 316.554688 656.308594 313.984375 653.671875 311.3125 C 706.328125 315.878906 747.65625 360.050781 747.65625 413.929688 C 747.65625 457.421875 720.632812 494.558594 682.519531 509.644531 " fill-opacity="1" fill-rule="nonzero"/><path fill="#7fcb27" d="M 500.566406 344.457031 C 497.960938 408.855469 443.679688 458.945312 379.285156 456.375 C 314.925781 453.769531 264.804688 399.484375 267.410156 335.089844 C 269.980469 270.691406 324.296875 220.601562 388.6875 223.171875 C 453.050781 225.773438 503.171875 280.09375 500.566406 344.457031 " fill-opacity="1" fill-rule="nonzero"/><path fill="#030f1a" d="M 500.566406 344.457031 L 493.800781 344.1875 C 491.433594 403.339844 442.734375 449.710938 384.054688 449.679688 C 382.566406 449.679688 381.078125 449.679688 379.558594 449.609375 C 320.40625 447.242188 274.074219 398.503906 274.074219 339.855469 C 274.074219 338.367188 274.105469 336.847656 274.140625 335.359375 C 276.542969 276.203125 325.242188 229.832031 383.886719 229.832031 C 385.410156 229.832031 386.898438 229.867188 388.417969 229.933594 C 447.535156 232.300781 493.902344 281.039062 493.902344 339.6875 C 493.902344 341.175781 493.871094 342.699219 493.800781 344.1875 L 507.332031 344.726562 C 507.398438 343.035156 507.433594 341.378906 507.433594 339.6875 C 507.433594 273.800781 455.382812 219.113281 388.960938 216.441406 C 387.269531 216.371094 385.578125 216.304688 383.886719 216.304688 C 318.003906 216.304688 263.316406 268.355469 260.644531 334.816406 C 260.578125 336.507812 260.542969 338.199219 260.542969 339.855469 C 260.542969 405.777344 312.59375 460.433594 379.015625 463.140625 L 379.050781 463.140625 C 380.707031 463.207031 382.398438 463.207031 384.054688 463.242188 C 449.972656 463.207031 504.660156 411.1875 507.332031 344.726562 L 500.566406 344.457031 " fill-opacity="1" fill-rule="nonzero"/><path fill="#3eb83c" d="M 384.054688 449.679688 C 382.566406 449.679688 381.078125 449.679688 379.558594 449.609375 C 320.40625 447.242188 274.074219 398.503906 274.074219 339.855469 C 274.074219 338.367188 274.105469 336.847656 274.140625 335.359375 C 276.542969 276.203125 325.242188 229.832031 383.886719 229.832031 C 385.410156 229.832031 386.898438 229.867188 388.417969 229.933594 C 388.890625 229.96875 389.398438 229.96875 389.941406 230.003906 L 389.941406 449.542969 C 387.980469 449.644531 386.015625 449.679688 384.054688 449.679688 " fill-opacity="1" fill-rule="nonzero"/><path fill="#031006" d="M 383.648438 456.441406 C 382.195312 456.441406 380.742188 456.441406 379.285156 456.375 C 314.925781 453.769531 264.804688 399.484375 267.410156 335.089844 C 269.945312 272.28125 321.625 223.070312 383.921875 223.070312 C 385.511719 223.070312 387.097656 223.136719 388.6875 223.171875 C 389.09375 223.203125 389.5 223.238281 389.941406 223.273438 L 389.941406 230.003906 C 389.398438 229.96875 388.890625 229.96875 388.417969 229.933594 C 386.898438 229.867188 385.410156 229.832031 383.886719 229.832031 C 325.242188 229.832031 276.542969 276.203125 274.140625 335.359375 C 274.105469 336.847656 274.074219 338.367188 274.074219 339.855469 C 274.074219 398.503906 320.40625 447.242188 379.558594 449.609375 C 381.078125 449.679688 382.566406 449.679688 384.054688 449.679688 C 386.015625 449.679688 387.980469 449.644531 389.941406 449.542969 L 389.941406 456.273438 C 387.84375 456.410156 385.746094 456.441406 383.648438 456.441406 " fill-opacity="1" fill-rule="nonzero"/><path fill="#ffffff" d="M 319.628906 347.398438 L 361.429688 388.019531 C 365.351562 391.84375 370.695312 393.9375 376.210938 393.769531 C 381.6875 393.566406 386.898438 391.164062 390.582031 387.105469 L 455.246094 315.808594 C 462.753906 307.488281 462.144531 294.671875 453.828125 287.128906 C 445.539062 279.621094 432.6875 280.230469 425.179688 288.546875 L 374.652344 344.253906 L 347.9375 318.3125 C 339.921875 310.464844 327.070312 310.667969 319.257812 318.683594 C 311.410156 326.734375 311.613281 339.585938 319.628906 347.398438 " fill-opacity="1" fill-rule="nonzero"/></svg>