<svg xmlns="http://www.w3.org/2000/svg" xmlns:xlink="http://www.w3.org/1999/xlink" width="1024" zoomAndPan="magnify" viewBox="0 0 768 576" height="768" preserveAspectRatio="xMidYMid meet" version="1.0"><defs><clipPath id="a9297900b6"><path d="M 104.199219 56 L 616 56 L 616 567.699219 L 104.199219 567.699219 Z M 104.199219 56 " clip-rule="nonzero"/></clipPath><clipPath id="09b3d931e9"><path d="M 469 8.199219 L 663.699219 8.199219 L 663.699219 203 L 469 203 Z M 469 8.199219 " clip-rule="nonzero"/></clipPath><clipPath id="45c8bc8c76"><path d="M 173.292969 260.722656 L 409.542969 260.722656 L 409.542969 496.222656 L 173.292969 496.222656 Z M 173.292969 260.722656 " clip-rule="nonzero"/></clipPath></defs><g clip-path="url(#a9297900b6)"><path fill="#2f8555" d="M 542.066406 567.699219 L 177.175781 567.699219 C 136.941406 567.699219 104.199219 534.953125 104.199219 494.71875 L 104.199219 129.828125 C 104.199219 89.59375 136.941406 56.847656 177.175781 56.847656 L 396.109375 56.847656 L 396.109375 105.5 L 177.175781 105.5 C 163.773438 105.5 152.847656 116.398438 152.847656 129.828125 L 152.847656 494.71875 C 152.847656 508.148438 163.773438 519.046875 177.175781 519.046875 L 542.066406 519.046875 C 555.46875 519.046875 566.394531 508.148438 566.394531 494.71875 L 566.394531 275.785156 L 615.046875 275.785156 L 615.046875 494.71875 C 615.046875 534.953125 582.300781 567.699219 542.066406 567.699219 Z M 542.066406 567.699219 " fill-opacity="1" fill-rule="nonzero"/></g><g clip-path="url(#09b3d931e9)"><path fill="#adda00" d="M 663.699219 202.804688 L 615.046875 202.804688 L 615.046875 56.847656 L 469.089844 56.847656 L 469.089844 8.199219 L 639.371094 8.199219 C 652.800781 8.199219 663.699219 19.070312 663.699219 32.523438 Z M 663.699219 202.804688 " fill-opacity="1" fill-rule="nonzero"/></g><path fill="#adda00" d="M 330.265625 307.234375 L 622.179688 15.308594 L 656.582031 49.710938 L 364.667969 341.636719 Z M 330.265625 307.234375 " fill-opacity="1" fill-rule="nonzero"/><g clip-path="url(#45c8bc8c76)"><path fill="#adda00" d="M 385.078125 380.039062 C 385.117188 378.90625 385.972656 377.566406 386.988281 377.058594 L 407.546875 366.757812 C 408.558594 366.25 409.242188 364.921875 409.0625 363.800781 L 404.320312 341.945312 C 404.019531 340.855469 402.84375 339.902344 401.714844 339.828125 L 378.335938 338.316406 C 377.203125 338.242188 375.859375 337.355469 375.347656 336.347656 L 372.167969 330.496094 C 371.601562 329.519531 371.605469 327.921875 372.183594 326.945312 L 383.992188 307.03125 C 384.570312 306.058594 384.429688 304.5625 383.683594 303.710938 L 367.777344 287.480469 C 366.9375 286.71875 365.445312 286.542969 364.453125 287.09375 L 344.109375 298.390625 C 343.121094 298.9375 341.519531 298.90625 340.550781 298.320312 L 335.050781 295.199219 C 334.050781 294.667969 333.203125 293.304688 333.160156 292.175781 L 332.324219 268.839844 C 332.285156 267.707031 331.363281 266.515625 330.28125 266.1875 L 308.246094 260.914062 C 307.132812 260.710938 305.78125 261.363281 305.246094 262.359375 L 294.304688 282.738281 C 293.769531 283.734375 292.863281 284.542969 292.289062 284.53125 L 291.769531 284.53125 C 288.59375 284.53125 284.414062 284.847656 284.414062 284.847656 C 283.285156 284.929688 281.835938 284.238281 281.1875 283.308594 L 267.8125 264.042969 C 267.167969 263.113281 265.746094 262.601562 264.65625 262.902344 L 243.609375 270.003906 C 242.558594 270.425781 241.773438 271.699219 241.859375 272.828125 L 243.65625 295.726562 C 243.742188 296.855469 243.039062 298.28125 242.085938 298.894531 L 235.394531 303.53125 C 234.488281 304.207031 232.886719 304.402344 231.839844 303.972656 L 210.171875 294.996094 C 209.125 294.5625 207.652344 294.898438 206.894531 295.738281 L 193.390625 312.492188 C 192.726562 313.410156 192.746094 314.898438 193.429688 315.800781 L 207.246094 334.007812 C 207.933594 334.910156 208.101562 336.488281 207.628906 337.519531 L 203.871094 346.519531 C 203.472656 347.578125 202.234375 348.609375 201.121094 348.8125 L 178.132812 352.964844 C 177.019531 353.167969 175.960938 354.246094 175.785156 355.363281 C 175.785156 355.363281 173.535156 369.507812 173.535156 377.949219 L 173.535156 377.996094 C 173.535156 378.046875 174.40625 378.402344 175.46875 378.792969 L 196.921875 386.632812 C 197.984375 387.019531 198.984375 388.257812 199.144531 389.375 L 201.15625 400.347656 C 201.40625 401.449219 200.933594 402.984375 200.105469 403.757812 L 183.117188 419.589844 C 182.289062 420.363281 181.992188 421.835938 182.457031 422.867188 L 191.726562 440.84375 C 192.296875 441.820312 193.667969 442.417969 194.773438 442.171875 L 217.152344 437.140625 C 218.257812 436.890625 219.773438 437.382812 220.519531 438.230469 L 228.769531 446.8125 C 229.589844 447.597656 230.03125 449.132812 229.75 450.230469 L 224.054688 472.570312 C 223.773438 473.667969 224.328125 475.0625 225.285156 475.667969 L 242.753906 485.519531 C 243.769531 486.023438 245.246094 485.777344 246.042969 484.972656 L 262.25 468.539062 C 263.042969 467.730469 264.589844 467.3125 265.679688 467.605469 L 277.203125 470.167969 C 278.316406 470.367188 279.523438 471.410156 279.878906 472.484375 L 287.109375 494.207031 C 287.46875 495.28125 288.6875 496.1875 289.820312 496.21875 C 289.820312 496.21875 290.425781 496.238281 291.765625 496.238281 C 298.714844 496.238281 310.105469 494.746094 310.105469 494.746094 C 311.226562 494.601562 312.335938 493.574219 312.570312 492.464844 L 317.355469 469.707031 C 317.589844 468.601562 318.660156 467.398438 319.730469 467.039062 L 329.871094 463.195312 C 330.910156 462.75 332.484375 462.96875 333.363281 463.679688 L 351.148438 478.011719 C 352.03125 478.722656 353.515625 478.78125 354.453125 478.144531 L 371.148438 465.480469 C 372.011719 464.75 372.390625 463.285156 371.988281 462.226562 L 363.660156 440.355469 C 363.257812 439.296875 363.503906 437.703125 364.207031 436.8125 L 369.71875 429.296875 C 370.355469 428.363281 371.796875 427.695312 372.921875 427.816406 L 395.671875 430.257812 C 396.800781 430.378906 398.085938 429.628906 398.535156 428.585938 L 405.988281 408.199219 C 406.316406 407.113281 405.84375 405.679688 404.933594 405.007812 L 386.050781 391.066406 C 385.140625 390.390625 384.480469 388.917969 384.589844 387.792969 Z M 291.464844 447.324219 C 253.410156 447.324219 222.5625 416.464844 222.5625 378.390625 C 222.5625 340.320312 253.410156 309.457031 291.464844 309.457031 C 329.519531 309.457031 360.367188 340.320312 360.367188 378.390625 C 360.367188 416.464844 329.519531 447.324219 291.464844 447.324219 Z M 291.464844 447.324219 " fill-opacity="1" fill-rule="nonzero"/></g></svg>